<svg width="298" height="284" viewBox="0 0 298 284" fill="none" xmlns="http://www.w3.org/2000/svg">
<circle cx="29.5" cy="27.5" r="1.5" fill="#615D5D"/>
<circle cx="29.5" cy="27.5" r="1.5" fill="#615D5D"/>
<circle cx="29.5" cy="79.5" r="1.5" fill="#615D5D"/>
<circle cx="29.5" cy="53.5" r="1.5" fill="#615D5D"/>
<circle cx="29.5" cy="105.5" r="1.5" fill="#615D5D"/>
<circle cx="29.5" cy="105.5" r="1.5" fill="#615D5D"/>
<circle cx="51.5" cy="27.5" r="1.5" fill="#615D5D"/>
<circle cx="51.5" cy="27.5" r="1.5" fill="#615D5D"/>
<circle cx="51.5" cy="79.5" r="1.5" fill="#615D5D"/>
<circle cx="51.5" cy="53.5" r="1.5" fill="#615D5D"/>
<circle cx="51.5" cy="105.5" r="1.5" fill="#615D5D"/>
<circle cx="51.5" cy="105.5" r="1.5" fill="#615D5D"/>
<circle cx="70.5" cy="27.5" r="1.5" fill="#615D5D"/>
<circle cx="70.5" cy="27.5" r="1.5" fill="#615D5D"/>
<circle cx="70.5" cy="79.5" r="1.5" fill="#615D5D"/>
<circle cx="70.5" cy="53.5" r="1.5" fill="#615D5D"/>
<circle cx="70.5" cy="105.5" r="1.5" fill="#615D5D"/>
<circle cx="70.5" cy="105.5" r="1.5" fill="#615D5D"/>
<circle cx="92.5" cy="27.5" r="1.5" fill="#615D5D"/>
<circle cx="92.5" cy="27.5" r="1.5" fill="#615D5D"/>
<circle cx="92.5" cy="79.5" r="1.5" fill="#615D5D"/>
<circle cx="92.5" cy="53.5" r="1.5" fill="#615D5D"/>
<circle cx="92.5" cy="105.5" r="1.5" fill="#615D5D"/>
<circle cx="92.5" cy="105.5" r="1.5" fill="#615D5D"/>
<circle cx="114.5" cy="27.5" r="1.5" fill="#615D5D"/>
<circle cx="114.5" cy="27.5" r="1.5" fill="#615D5D"/>
<circle cx="114.5" cy="79.5" r="1.5" fill="#615D5D"/>
<circle cx="114.5" cy="53.5" r="1.5" fill="#615D5D"/>
<circle cx="114.5" cy="105.5" r="1.5" fill="#615D5D"/>
<circle cx="114.5" cy="105.5" r="1.5" fill="#615D5D"/>
<circle cx="136.5" cy="27.5" r="1.5" fill="#615D5D"/>
<circle cx="136.5" cy="27.5" r="1.5" fill="#615D5D"/>
<circle cx="136.5" cy="79.5" r="1.5" fill="#615D5D"/>
<circle cx="136.5" cy="53.5" r="1.5" fill="#615D5D"/>
<circle cx="136.5" cy="105.5" r="1.5" fill="#615D5D"/>
<circle cx="136.5" cy="105.5" r="1.5" fill="#615D5D"/>
<circle cx="158.5" cy="27.5" r="1.5" fill="#615D5D"/>
<circle cx="158.5" cy="27.5" r="1.5" fill="#615D5D"/>
<circle cx="158.5" cy="79.5" r="1.5" fill="#615D5D"/>
<circle cx="158.5" cy="53.5" r="1.5" fill="#615D5D"/>
<circle cx="158.5" cy="105.5" r="1.5" fill="#615D5D"/>
<circle cx="158.5" cy="105.5" r="1.5" fill="#615D5D"/>
<circle cx="180.5" cy="27.5" r="1.5" fill="#615D5D"/>
<circle cx="180.5" cy="27.5" r="1.5" fill="#615D5D"/>
<circle cx="180.5" cy="79.5" r="1.5" fill="#615D5D"/>
<circle cx="180.5" cy="53.5" r="1.5" fill="#615D5D"/>
<circle cx="180.5" cy="105.5" r="1.5" fill="#615D5D"/>
<circle cx="180.5" cy="105.5" r="1.5" fill="#615D5D"/>
<circle cx="202.5" cy="27.5" r="1.5" fill="#615D5D"/>
<circle cx="202.5" cy="27.5" r="1.5" fill="#615D5D"/>
<circle cx="202.5" cy="79.5" r="1.5" fill="#615D5D"/>
<circle cx="202.5" cy="53.5" r="1.5" fill="#615D5D"/>
<circle cx="202.5" cy="105.5" r="1.5" fill="#615D5D"/>
<circle cx="202.5" cy="105.5" r="1.5" fill="#615D5D"/>
<circle cx="224.5" cy="27.5" r="1.5" fill="#615D5D"/>
<circle cx="224.5" cy="27.5" r="1.5" fill="#615D5D"/>
<circle cx="224.5" cy="79.5" r="1.5" fill="#615D5D"/>
<circle cx="224.5" cy="53.5" r="1.5" fill="#615D5D"/>
<circle cx="224.5" cy="105.5" r="1.5" fill="#615D5D"/>
<circle cx="224.5" cy="105.5" r="1.5" fill="#615D5D"/>
<circle cx="246.5" cy="27.5" r="1.5" fill="#615D5D"/>
<circle cx="246.5" cy="27.5" r="1.5" fill="#615D5D"/>
<circle cx="246.5" cy="79.5" r="1.5" fill="#615D5D"/>
<circle cx="246.5" cy="53.5" r="1.5" fill="#615D5D"/>
<circle cx="246.5" cy="105.5" r="1.5" fill="#615D5D"/>
<circle cx="246.5" cy="105.5" r="1.5" fill="#615D5D"/>
<circle cx="268.5" cy="27.5" r="1.5" fill="#615D5D"/>
<circle cx="268.5" cy="27.5" r="1.5" fill="#615D5D"/>
<circle cx="268.5" cy="79.5" r="1.5" fill="#615D5D"/>
<circle cx="268.5" cy="53.5" r="1.5" fill="#615D5D"/>
<circle cx="268.5" cy="105.5" r="1.5" fill="#615D5D"/>
<circle cx="268.5" cy="105.5" r="1.5" fill="#615D5D"/>
<circle cx="29.5" cy="128.5" r="1.5" fill="#615D5D"/>
<circle cx="29.5" cy="128.5" r="1.5" fill="#615D5D"/>
<circle cx="29.5" cy="180.5" r="1.5" fill="#615D5D"/>
<circle cx="29.5" cy="154.5" r="1.5" fill="#615D5D"/>
<circle cx="29.5" cy="206.5" r="1.5" fill="#615D5D"/>
<circle cx="29.5" cy="206.5" r="1.5" fill="#615D5D"/>
<circle cx="51.5" cy="128.5" r="1.5" fill="#615D5D"/>
<circle cx="51.5" cy="128.5" r="1.5" fill="#615D5D"/>
<circle cx="51.5" cy="180.5" r="1.5" fill="#615D5D"/>
<circle cx="51.5" cy="154.5" r="1.5" fill="#615D5D"/>
<circle cx="51.5" cy="206.5" r="1.5" fill="#615D5D"/>
<circle cx="51.5" cy="206.5" r="1.5" fill="#615D5D"/>
<circle cx="70.5" cy="128.5" r="1.5" fill="#615D5D"/>
<circle cx="70.5" cy="128.5" r="1.5" fill="#615D5D"/>
<circle cx="70.5" cy="180.5" r="1.5" fill="#615D5D"/>
<circle cx="70.5" cy="154.5" r="1.5" fill="#615D5D"/>
<circle cx="70.5" cy="206.5" r="1.5" fill="#615D5D"/>
<circle cx="70.5" cy="206.5" r="1.5" fill="#615D5D"/>
<circle cx="92.5" cy="128.5" r="1.5" fill="#615D5D"/>
<circle cx="92.5" cy="128.5" r="1.5" fill="#615D5D"/>
<circle cx="92.5" cy="180.5" r="1.5" fill="#615D5D"/>
<circle cx="92.5" cy="154.5" r="1.5" fill="#615D5D"/>
<circle cx="92.5" cy="206.5" r="1.5" fill="#615D5D"/>
<circle cx="92.5" cy="206.5" r="1.5" fill="#615D5D"/>
<circle cx="114.5" cy="128.5" r="1.5" fill="#615D5D"/>
<circle cx="114.5" cy="128.5" r="1.5" fill="#615D5D"/>
<circle cx="114.5" cy="180.5" r="1.5" fill="#615D5D"/>
<circle cx="114.5" cy="154.5" r="1.5" fill="#615D5D"/>
<circle cx="114.5" cy="206.5" r="1.5" fill="#615D5D"/>
<circle cx="114.5" cy="206.5" r="1.5" fill="#615D5D"/>
<circle cx="136.5" cy="128.5" r="1.5" fill="#615D5D"/>
<circle cx="136.5" cy="128.5" r="1.5" fill="#615D5D"/>
<circle cx="136.5" cy="180.5" r="1.5" fill="#615D5D"/>
<circle cx="136.5" cy="154.5" r="1.5" fill="#615D5D"/>
<circle cx="136.5" cy="206.5" r="1.5" fill="#615D5D"/>
<circle cx="136.5" cy="206.5" r="1.5" fill="#615D5D"/>
<circle cx="158.5" cy="128.5" r="1.5" fill="#615D5D"/>
<circle cx="158.5" cy="128.5" r="1.5" fill="#615D5D"/>
<circle cx="158.5" cy="180.5" r="1.5" fill="#615D5D"/>
<circle cx="158.5" cy="154.5" r="1.5" fill="#615D5D"/>
<circle cx="158.5" cy="206.5" r="1.5" fill="#615D5D"/>
<circle cx="158.5" cy="206.5" r="1.5" fill="#615D5D"/>
<circle cx="180.5" cy="128.5" r="1.5" fill="#615D5D"/>
<circle cx="180.5" cy="128.5" r="1.5" fill="#615D5D"/>
<circle cx="180.5" cy="180.5" r="1.5" fill="#615D5D"/>
<circle cx="180.5" cy="154.5" r="1.5" fill="#615D5D"/>
<circle cx="180.5" cy="206.5" r="1.5" fill="#615D5D"/>
<circle cx="180.5" cy="206.5" r="1.5" fill="#615D5D"/>
<circle cx="202.5" cy="128.5" r="1.5" fill="#615D5D"/>
<circle cx="202.5" cy="128.5" r="1.5" fill="#615D5D"/>
<circle cx="202.5" cy="180.5" r="1.5" fill="#615D5D"/>
<circle cx="202.5" cy="154.5" r="1.5" fill="#615D5D"/>
<circle cx="202.5" cy="206.5" r="1.5" fill="#615D5D"/>
<circle cx="202.5" cy="206.5" r="1.5" fill="#615D5D"/>
<circle cx="224.5" cy="128.5" r="1.5" fill="#615D5D"/>
<circle cx="224.5" cy="128.5" r="1.5" fill="#615D5D"/>
<circle cx="224.5" cy="180.5" r="1.5" fill="#615D5D"/>
<circle cx="224.5" cy="154.5" r="1.5" fill="#615D5D"/>
<circle cx="224.5" cy="206.5" r="1.5" fill="#615D5D"/>
<circle cx="224.5" cy="206.5" r="1.5" fill="#615D5D"/>
<circle cx="246.5" cy="128.5" r="1.5" fill="#615D5D"/>
<circle cx="246.5" cy="128.5" r="1.5" fill="#615D5D"/>
<circle cx="246.5" cy="180.5" r="1.5" fill="#615D5D"/>
<circle cx="246.5" cy="154.5" r="1.5" fill="#615D5D"/>
<circle cx="246.5" cy="206.5" r="1.5" fill="#615D5D"/>
<circle cx="246.5" cy="206.5" r="1.5" fill="#615D5D"/>
<circle cx="268.5" cy="128.5" r="1.5" fill="#615D5D"/>
<circle cx="268.5" cy="128.5" r="1.5" fill="#615D5D"/>
<circle cx="268.5" cy="180.5" r="1.5" fill="#615D5D"/>
<circle cx="268.5" cy="154.5" r="1.5" fill="#615D5D"/>
<circle cx="268.5" cy="206.5" r="1.5" fill="#615D5D"/>
<circle cx="268.5" cy="206.5" r="1.5" fill="#615D5D"/>
<circle cx="29.5" cy="230.5" r="1.5" fill="#615D5D"/>
<circle cx="29.5" cy="256.5" r="1.5" fill="#615D5D"/>
<circle cx="29.5" cy="256.5" r="1.5" fill="#615D5D"/>
<circle cx="51.5" cy="230.5" r="1.5" fill="#615D5D"/>
<circle cx="51.5" cy="256.5" r="1.5" fill="#615D5D"/>
<circle cx="51.5" cy="256.5" r="1.5" fill="#615D5D"/>
<circle cx="70.5" cy="230.5" r="1.5" fill="#615D5D"/>
<circle cx="70.5" cy="256.5" r="1.5" fill="#615D5D"/>
<circle cx="70.5" cy="256.5" r="1.5" fill="#615D5D"/>
<circle cx="92.5" cy="230.5" r="1.5" fill="#615D5D"/>
<circle cx="92.5" cy="256.5" r="1.5" fill="#615D5D"/>
<circle cx="92.5" cy="256.5" r="1.5" fill="#615D5D"/>
<circle cx="114.5" cy="230.5" r="1.5" fill="#615D5D"/>
<circle cx="114.5" cy="256.5" r="1.5" fill="#615D5D"/>
<circle cx="114.5" cy="256.5" r="1.5" fill="#615D5D"/>
<circle cx="136.5" cy="230.5" r="1.5" fill="#615D5D"/>
<circle cx="136.5" cy="256.5" r="1.5" fill="#615D5D"/>
<circle cx="136.5" cy="256.5" r="1.5" fill="#615D5D"/>
<circle cx="158.5" cy="230.5" r="1.5" fill="#615D5D"/>
<circle cx="158.5" cy="256.5" r="1.5" fill="#615D5D"/>
<circle cx="158.5" cy="256.5" r="1.5" fill="#615D5D"/>
<circle cx="180.5" cy="230.5" r="1.5" fill="#615D5D"/>
<circle cx="180.5" cy="256.5" r="1.5" fill="#615D5D"/>
<circle cx="180.5" cy="256.5" r="1.5" fill="#615D5D"/>
<circle cx="202.5" cy="230.5" r="1.5" fill="#615D5D"/>
<circle cx="202.5" cy="256.5" r="1.5" fill="#615D5D"/>
<circle cx="202.5" cy="256.5" r="1.5" fill="#615D5D"/>
<circle cx="224.5" cy="230.5" r="1.5" fill="#615D5D"/>
<circle cx="224.5" cy="256.5" r="1.5" fill="#615D5D"/>
<circle cx="224.5" cy="256.5" r="1.5" fill="#615D5D"/>
<circle cx="246.5" cy="230.5" r="1.5" fill="#615D5D"/>
<circle cx="246.5" cy="256.5" r="1.5" fill="#615D5D"/>
<circle cx="246.5" cy="256.5" r="1.5" fill="#615D5D"/>
<circle cx="268.5" cy="230.5" r="1.5" fill="#615D5D"/>
<circle cx="268.5" cy="256.5" r="1.5" fill="#615D5D"/>
<circle cx="268.5" cy="256.5" r="1.5" fill="#615D5D"/>
</svg>
