<svg width="119" height="131" viewBox="0 0 119 131" fill="none" xmlns="http://www.w3.org/2000/svg">
<circle cx="8.5" cy="115.186" r="1.5" fill="#615D5D"/>
<circle cx="8.5" cy="90.0142" r="1.5" fill="#615D5D"/>
<circle cx="8.5" cy="64.8428" r="1.5" fill="#615D5D"/>
<circle cx="8.5" cy="39.6714" r="1.5" fill="#615D5D"/>
<circle cx="8.5" cy="14.5" r="1.5" fill="#615D5D"/>
<circle cx="33.6714" cy="115.186" r="1.5" fill="#615D5D"/>
<circle cx="33.6714" cy="90.0142" r="1.5" fill="#615D5D"/>
<circle cx="33.6714" cy="64.8428" r="1.5" fill="#615D5D"/>
<circle cx="33.6714" cy="39.6714" r="1.5" fill="#615D5D"/>
<circle cx="33.6714" cy="14.5" r="1.5" fill="#615D5D"/>
<circle cx="58.8428" cy="115.186" r="1.5" fill="#615D5D"/>
<circle cx="58.8428" cy="90.0142" r="1.5" fill="#615D5D"/>
<circle cx="58.8428" cy="64.8428" r="1.5" fill="#615D5D"/>
<circle cx="58.8428" cy="39.6714" r="1.5" fill="#615D5D"/>
<circle cx="58.8428" cy="14.5" r="1.5" fill="#615D5D"/>
<circle cx="84.0142" cy="115.186" r="1.5" fill="#615D5D"/>
<circle cx="84.0142" cy="90.0142" r="1.5" fill="#615D5D"/>
<circle cx="84.0142" cy="64.8428" r="1.5" fill="#615D5D"/>
<circle cx="84.0142" cy="39.6714" r="1.5" fill="#615D5D"/>
<circle cx="84.0142" cy="14.5" r="1.5" fill="#615D5D"/>
<circle cx="109.186" cy="115.186" r="1.5" fill="#615D5D"/>
<circle cx="109.186" cy="90.0142" r="1.5" fill="#615D5D"/>
<circle cx="109.186" cy="64.8428" r="1.5" fill="#615D5D"/>
<circle cx="109.186" cy="39.6714" r="1.5" fill="#615D5D"/>
<circle cx="109.186" cy="14.5" r="1.5" fill="#615D5D"/>
</svg>
